<svg xmlns="http://www.w3.org/2000/svg" width="392" height="28" viewBox="0 0 392 28">
  <g fill="none" fill-rule="evenodd">
    <path fill="#323B43" fill-rule="nonzero" d="M98.1072868 5.64668786C97.9188346 5.45826796 97.8162099 5.21457621 97.8162099 4.96169354 97.8162099 4.70881088 97.9188346 4.46511913 98.1072868 4.27669922L100.688843 1.69566682C101.657539.767491988 103.192555.767491988 104.12461 1.69938683L110.804989 8.37861894C111.743868 9.35806834 111.731367 10.8953818 110.768683 11.8177175L108.190928 14.3950299C108.002484 14.5834416 107.758773 14.6860391 107.505876 14.6860391 107.25298 14.6860391 107.009269 14.5834416 106.820825 14.3950299L106.235152 13.8094574 103.616946 16.4272141 103.616946 20.0988663C103.616946 20.351749 103.514321 20.5954407 103.325869 20.7838606L100.748114 23.361173C100.55967 23.5495847 100.315959 23.6521822 100.063062 23.6521822 99.8101661 23.6521822 99.5664552 23.5495847 99.3780112 23.361173L94.9438587 18.927782 86.6612267 27.2089915C86.4727827 27.3974032 86.2290718 27.5 85.9761755 27.5 85.7232792 27.5 85.4795683 27.3974032 85.2911242 27.2089915 84.9030216 26.8209556 84.9030216 26.2270388 85.2907461 25.8393818L93.5740737 17.5219321 89.1396036 13.0882236C88.7515011 12.7001877 88.7515011 12.1062709 89.1396036 11.718235L91.7173587 9.14092261C91.9058028 8.95251093 92.1495137 8.84991344 92.40241 8.84991344L96.0747358 8.84991344 98.6928992 6.23219965 98.1072868 5.64668786zM128.779506 7.40291673L126.805076 12.2112079 130.291339 13.1781405 130.399614 13.2031378C130.675265 13.3171374 130.881665 13.5535894 130.957379 13.8421139 131.028923 14.132214 130.958085 14.4390452 130.766611 14.6684228L124.402099 22.1126566C124.180956 22.3774515 123.799682 22.4412718 123.504363 22.262926 123.209044 22.0845801 123.088037 21.7174282 123.219445 21.3984413L125.195849 16.5816021 121.70871 15.6054636 121.600435 15.5804664C121.326033 15.4658849 121.120814 15.229822 121.045519 14.942148 120.974458 14.6520446 121.045245 14.3454314 121.236288 14.1158392L127.591811 6.68453647C127.816961 6.42714694 128.194397 6.36853218 128.487003 6.54551574 128.779609 6.72249931 128.902936 7.08400193 128.779506 7.40291673L128.779506 7.40291673zM125.998552.5C125.228985.5 124.605127 1.12385732 124.605127 1.89342432 124.605127 2.66299132 125.228985 3.28684864 125.998552 3.28684864 131.912916 3.29168371 136.706702 8.08416096 136.713151 13.9985239 136.713151 14.7680909 137.337009 15.3919483 138.106576 15.3919483 138.876143 15.3919483 139.5 14.7680909 139.5 13.9985239 139.491939 6.5456951 133.451382.506446913 125.998552.5zM124.58612 26.1021614C124.585343 26.471333 124.731252 26.8256926 124.991747 27.0872847 125.252242 27.3488768 125.605986 27.4962731 125.975157 27.4970479L125.975157 27.4970479C126.743536 27.4970479 127.366579 26.8744367 127.367117 26.1060584 127.367653 25.3376802 126.745481 24.7142005 125.977103 24.7131235 125.208725 24.7120493 124.58481 25.3337847 124.583195 26.1021614L124.58612 26.1021614zM113.89199 15.3817132C114.455782 15.3817132 114.963888 15.0416043 115.178813 14.5203858 115.393738 13.9991674 115.273031 13.3997776 114.873112 13.0023786 114.473192 12.6049797 113.873051 12.4880645 113.353202 12.7062807 112.833353 12.9244969 112.496475 13.4347431 112.5 13.9985239 112.504851 14.7638552 113.126644 15.3817132 113.89199 15.3817132zM119.231744 25.6810636C119.896763 26.0662724 120.748133 25.8396375 121.133625 25.1747825 121.519116 24.5099276 121.292843 23.6584612 120.628152 23.272687 119.963461 22.8869128 119.111899 23.1128237 118.725842 23.7773506 118.342768 24.4431355 118.56869 25.2932819 119.231744 25.6810636zM118.743388 4.21092437C119.131332 4.87314285 119.982089 5.09640238 120.645215 4.71001063 121.308341 4.32361887 121.533594 3.4733874 121.148757 2.80935782 120.763921 2.14532824 119.914219 1.9180835 119.24929 2.30136281 118.927377 2.48601092 118.692738 2.7917973 118.597699 3.15053145 118.502659 3.50926559 118.555122 3.89111403 118.743388 4.21092437L118.743388 4.21092437zM114.813141 18.8323758C114.323972 19.1138179 114.052588 19.6622878 114.125604 20.2218997 114.19862 20.7815116 114.601646 21.2419874 115.146653 21.3884946 115.69166 21.5350019 116.271247 21.3386695 116.615012 20.8910953 116.958777 20.4435212 116.998976 19.832905 116.716854 19.3441266 116.331121 18.6786347 115.479463 18.4510026 114.813141 18.8353001L114.813141 18.8323758zM136.467511 21.464237C137.165942 21.4673516 137.758543 20.9524016 137.852915 20.2603691 137.947287 19.5683366 137.514207 18.9135148 136.840445 18.7295042 136.166683 18.5454936 135.460875 18.8892744 135.190383 19.5332069 134.919891 20.1771393 135.168474 20.9218248 135.77153 21.2741582 135.981942 21.3999193 136.222381 21.4665957 136.467511 21.4671613L136.467511 21.464237zM116.213876 6.73458688C115.548279 6.3506564 114.69748 6.57867924 114.313097 7.24401534 113.928714 7.90935144 114.156157 8.7603053 114.821232 9.14514119 115.486306 9.52997708 116.337415 9.30311225 116.722703 8.63829985 116.908061 8.31846605 116.958584 7.93803704 116.863131 7.58090981 116.767677 7.22378257 116.534088 6.91929153 116.213876 6.73458688L116.213876 6.73458688zM130.835328 25.1897828C131.083636 25.6222824 131.544349 25.8888937 132.04306 25.8886883 132.283139 25.8849745 132.518057 25.8184312 132.724419 25.6956851 133.212339 25.4147808 133.482999 24.8676171 133.410188 24.3093415 133.337377 23.7510658 132.935434 23.2916241 132.391789 23.1452581 131.848144 22.9988921 131.269861 23.1944268 130.926599 23.6406828 130.583337 24.0869388 130.542697 24.696031 130.823631 25.1839343L130.835328 25.1897828z"/>
    <path fill="#F84849" fill-rule="nonzero" d="M156.779506,7.40291673 L154.805076,12.2112079 L158.291339,13.1781405 L158.399614,13.2031378 C158.675265,13.3171374 158.881665,13.5535894 158.957379,13.8421139 C159.028923,14.132214 158.958085,14.4390452 158.766611,14.6684228 L152.402099,22.1126566 C152.180956,22.3774515 151.799682,22.4412718 151.504363,22.262926 C151.209044,22.0845801 151.088037,21.7174282 151.219445,21.3984413 L153.195849,16.5816021 L149.70871,15.6054636 L149.600435,15.5804664 C149.326033,15.4658849 149.120814,15.229822 149.045519,14.942148 C148.974458,14.6520446 149.045245,14.3454314 149.236288,14.1158392 L155.591811,6.68453647 C155.816961,6.42714694 156.194397,6.36853218 156.487003,6.54551574 C156.779609,6.72249931 156.902936,7.08400193 156.779506,7.40291673 L156.779506,7.40291673 Z M153.998552,0.5 C153.228985,0.5 152.605127,1.12385732 152.605127,1.89342432 C152.605127,2.66299132 153.228985,3.28684864 153.998552,3.28684864 C159.912916,3.29168371 164.706702,8.08416096 164.713151,13.9985239 C164.713151,14.7680909 165.337009,15.3919483 166.106576,15.3919483 C166.876143,15.3919483 167.5,14.7680909 167.5,13.9985239 C167.491939,6.5456951 161.451382,0.506446913 153.998552,0.5 Z M152.58612,26.1021614 C152.585343,26.471333 152.731252,26.8256926 152.991747,27.0872847 C153.252242,27.3488768 153.605986,27.4962731 153.975157,27.4970479 L153.975157,27.4970479 C154.743536,27.4970479 155.366579,26.8744367 155.367117,26.1060584 C155.367653,25.3376802 154.745481,24.7142005 153.977103,24.7131235 C153.208725,24.7120493 152.58481,25.3337847 152.583195,26.1021614 L152.58612,26.1021614 Z M141.89199,15.3817132 C142.455782,15.3817132 142.963888,15.0416043 143.178813,14.5203858 C143.393738,13.9991674 143.273031,13.3997776 142.873112,13.0023786 C142.473192,12.6049797 141.873051,12.4880645 141.353202,12.7062807 C140.833353,12.9244969 140.496475,13.4347431 140.5,13.9985239 C140.504851,14.7638552 141.126644,15.3817132 141.89199,15.3817132 Z M147.231744,25.6810636 C147.896763,26.0662724 148.748133,25.8396375 149.133625,25.1747825 C149.519116,24.5099276 149.292843,23.6584612 148.628152,23.272687 C147.963461,22.8869128 147.111899,23.1128237 146.725842,23.7773506 C146.342768,24.4431355 146.56869,25.2932819 147.231744,25.6810636 Z M146.743388,4.21092437 C147.131332,4.87314285 147.982089,5.09640238 148.645215,4.71001063 C149.308341,4.32361887 149.533594,3.4733874 149.148757,2.80935782 C148.763921,2.14532824 147.914219,1.9180835 147.24929,2.30136281 C146.927377,2.48601092 146.692738,2.7917973 146.597699,3.15053145 C146.502659,3.50926559 146.555122,3.89111403 146.743388,4.21092437 L146.743388,4.21092437 Z M142.813141,18.8323758 C142.323972,19.1138179 142.052588,19.6622878 142.125604,20.2218997 C142.19862,20.7815116 142.601646,21.2419874 143.146653,21.3884946 C143.69166,21.5350019 144.271247,21.3386695 144.615012,20.8910953 C144.958777,20.4435212 144.998976,19.832905 144.716854,19.3441266 C144.331121,18.6786347 143.479463,18.4510026 142.813141,18.8353001 L142.813141,18.8323758 Z M164.467511,21.464237 C165.165942,21.4673516 165.758543,20.9524016 165.852915,20.2603691 C165.947287,19.5683366 165.514207,18.9135148 164.840445,18.7295042 C164.166683,18.5454936 163.460875,18.8892744 163.190383,19.5332069 C162.919891,20.1771393 163.168474,20.9218248 163.77153,21.2741582 C163.981942,21.3999193 164.222381,21.4665957 164.467511,21.4671613 L164.467511,21.464237 Z M144.213876,6.73458688 C143.548279,6.3506564 142.69748,6.57867924 142.313097,7.24401534 C141.928714,7.90935144 142.156157,8.7603053 142.821232,9.14514119 C143.486306,9.52997708 144.337415,9.30311225 144.722703,8.63829985 C144.908061,8.31846605 144.958584,7.93803704 144.863131,7.58090981 C144.767677,7.22378257 144.534088,6.91929153 144.213876,6.73458688 L144.213876,6.73458688 Z M158.835328,25.1897828 C159.083636,25.6222824 159.544349,25.8888937 160.04306,25.8886883 C160.283139,25.8849745 160.518057,25.8184312 160.724419,25.6956851 C161.212339,25.4147808 161.482999,24.8676171 161.410188,24.3093415 C161.337377,23.7510658 160.935434,23.2916241 160.391789,23.1452581 C159.848144,22.9988921 159.269861,23.1944268 158.926599,23.6406828 C158.583337,24.0869388 158.542697,24.696031 158.823631,25.1839343 L158.835328,25.1897828 Z"/>
    <path fill="#FFF" stroke="#323B43" stroke-opacity=".048" d="M182,0.5 C189.486364,0.5 195.5,6.51363636 195.5,14 C195.5,21.4863636 189.486364,27.5 182,27.5 C174.513636,27.5 168.5,21.4863636 168.5,14 C168.5,6.51363636 174.513636,0.5 182,0.5 Z M182,2.95454545 C175.863636,2.95454545 170.954545,7.86363636 170.954545,14 C170.954545,20.1363636 175.863636,25.0454545 182,25.0454545 C188.136364,25.0454545 193.045455,20.1363636 193.045455,14 C193.045455,7.86363636 188.136364,2.95454545 182,2.95454545 Z M181.756756,18.4300149 C182.123363,18.4300149 182.431774,18.5635313 182.681998,18.830568 C182.932222,19.0976048 183.057332,19.4267382 183.057332,19.817978 C183.057332,20.252689 182.926403,20.5942425 182.664541,20.8426488 C182.402678,21.0910551 182.100086,21.2152564 181.756756,21.2152564 C181.401787,21.2152564 181.091921,21.0926076 180.827149,20.8473064 C180.562377,20.6020052 180.429993,20.2588992 180.429993,19.817978 C180.429993,19.4267382 180.558012,19.0976048 180.814056,18.830568 C181.070099,18.5635313 181.384329,18.4300149 181.756756,18.4300149 Z M181.969096,7.11206055 C182.812875,7.11206055 183.557717,7.27817975 184.203644,7.61042315 C184.849571,7.94266654 185.348557,8.39444868 185.700616,8.96578311 C186.052676,9.53711755 186.228703,10.1581239 186.228703,10.8288209 C186.228703,11.3566842 186.128324,11.819334 185.927563,12.216784 C185.726802,12.614234 185.488219,12.9573401 185.211809,13.2461124 C184.935399,13.5348847 184.439322,14.0208221 183.723565,14.7039394 C183.525714,14.8964543 183.367144,15.0656785 183.247851,15.2116172 C183.128558,15.3575559 183.039817,15.4910722 182.981625,15.6121703 C182.923434,15.7332684 182.878336,15.8543646 182.846331,15.9754627 C182.814325,16.0965607 182.766318,16.3092554 182.702307,16.6135531 C182.591743,17.2594094 182.245508,17.5823327 181.663591,17.5823327 C181.360995,17.5823327 181.10641,17.4767616 180.89983,17.2656163 C180.693249,17.054471 180.589961,16.7408628 180.589961,16.3247822 C180.589961,15.8031291 180.665609,15.3513469 180.816907,14.9694223 C180.968205,14.5874976 181.168964,14.2521542 181.419188,13.9633819 C181.669412,13.6746096 182.006918,13.3315036 182.431717,12.9340535 C182.804144,12.5862847 183.073276,12.3239096 183.239122,12.1469201 C183.404968,11.9699306 183.544626,11.7727611 183.6581,11.5554056 C183.771574,11.3380501 183.82831,11.1020677 183.82831,10.8474512 C183.82831,10.3506387 183.655192,9.93145939 183.308952,9.58990076 C182.962712,9.24834213 182.516097,9.07756538 181.969096,9.07756538 C181.328988,9.07756538 180.857643,9.24989465 180.555046,9.59455836 C180.25245,9.93922206 179.99641,10.4468948 179.78692,11.1175917 C179.589069,11.8193395 179.213738,12.1702081 178.660918,12.1702081 C178.335044,12.1702081 178.060093,12.0475593 177.836055,11.8022581 C177.612017,11.5569569 177.5,11.2914767 177.5,11.0058095 C177.5,10.4158446 177.677482,9.81812591 178.032451,9.21263562 C178.38742,8.60714532 178.905318,8.10568267 179.58616,7.70823263 C180.267002,7.31078259 181.061306,7.11206055 181.969096,7.11206055 Z" opacity=".9"/>
    <path fill="#FFF" stroke="#323B43" stroke-opacity=".048" d="M210 .5C202.513636.5 196.5 6.51363636 196.5 14 196.5 21.4863636 202.513636 27.5 210 27.5 217.486364 27.5 223.5 21.4863636 223.5 14 223.5 6.51363636 217.486364.5 210 .5L210 .5zM210 2.95454545C216.136364 2.95454545 221.045455 7.86363636 221.045455 14 221.045455 20.1363636 216.136364 25.0454545 210 25.0454545 203.863636 25.0454545 198.954545 20.1363636 198.954545 14 198.954545 7.86363636 203.863636 2.95454545 210 2.95454545zM209.984135 17.6567922C209.182212 17.6567922 208.530288 18.2771843 208.530288 19.0403216 208.530288 19.8034588 209.182212 20.423851 209.984135 20.423851 210.786058 20.423851 211.437981 19.8034588 211.437981 19.0403216 211.437981 18.2771843 210.786058 17.6567922 209.984135 17.6567922zM210.001442 6.56110588C209.211058 6.56110588 208.582212 7.18149804 208.599519 7.92816471L208.599519 7.92816471 208.824519 15.5924784C208.841827 16.1909098 209.361058 16.6740471 209.995673 16.6740471 210.630288 16.6740471 211.149519 16.1964 211.166827 15.5924784L211.166827 15.5924784 211.397596 7.92816471C211.420673 7.18149804 210.786058 6.56110588 210.001442 6.56110588zM238 .5C230.513636.5 224.5 6.51363636 224.5 14 224.5 21.4863636 230.513636 27.5 238 27.5 245.486364 27.5 251.5 21.4863636 251.5 14 251.5 6.51363636 245.486364.5 238 .5L238 .5zM238 25.0454545C231.863636 25.0454545 226.954545 20.1363636 226.954545 14 226.954545 7.86363636 231.863636 2.95454545 238 2.95454545 244.136364 2.95454545 249.045455 7.86363636 249.045455 14 249.045455 20.1363636 244.136364 25.0454545 238 25.0454545L238 25.0454545zM237.018182 15.9818182L234.718182 13.4045454C234.227273 12.9136363 233.490909 12.9136363 233 13.4045454 232.509091 13.8954545 232.509091 14.6318181 233 15.1227272L236.159091 18.5590909C236.65 19.05 237.386364 19.05 237.877273 18.5590909L243.718182 11.7181818C244.209091 11.2272727 244.209091 10.4909091 243.718182 10 243.227273 9.50909091 242.368182 9.50909092 242 10L237.018182 15.9818182z"/>
    <path fill="#FFF" fill-rule="nonzero" stroke="#323B43" stroke-opacity=".048" d="M265.999851,4.03286527 L255.196235,24.3690831 L276.803467,24.3690831 L265.999851,4.03286527 Z M267.324862,1.79676824 L279.324331,24.3840036 C279.713091,25.115787 279.435015,26.0241668 278.703232,26.4129267 C278.486471,26.5280808 278.244769,26.5882978 277.99932,26.5882978 L254.000382,26.5882978 C253.171744,26.5882978 252.5,25.9165539 252.5,25.0879157 C252.5,24.8424659 252.560217,24.6007642 252.675371,24.3840036 L264.67484,1.79676824 C265.0636,1.06498488 265.97198,0.786909426 266.703763,1.17566934 C266.968119,1.31610837 267.184423,1.53241243 267.324862,1.79676824 Z M267.323098,9.81384631 L267.323098,17.1977312 C267.323098,17.9284578 266.730727,18.5208288 266,18.5208288 C265.269273,18.5208288 264.676902,17.9284578 264.676902,17.1977312 L264.676902,9.81384631 C264.676902,9.08311969 265.269273,8.49074872 266,8.49074872 C266.730727,8.49074872 267.323098,9.08311969 267.323098,9.81384631 Z M266,20.0212487 C266.818411,20.0212487 267.50042,20.6941643 267.50042,21.5398556 C267.50042,22.3855468 266.818411,23.049369 266,23.049369 C265.172496,23.049369 264.49958,22.3855468 264.49958,21.5398556 C264.49958,20.6941643 265.172496,20.0212487 266,20.0212487 Z"/>
    <path fill="#323B43" d="M311.7,23.95 L311.7,6.67 C310.08,7.21 309,8.695 309,10.45 L309,23.95 C309,26.245 310.755,28 313.05,28 L326.55,28 C328.305,28 329.79,26.92 330.33,25.3 L313.05,25.3 C312.24,25.3 311.7,24.76 311.7,23.95 L311.7,23.95 Z M331.95,1 L318.45,1 C316.155,1 314.4,2.755 314.4,5.05 L314.4,18.55 C314.4,20.845 316.155,22.6 318.45,22.6 L331.95,22.6 C334.245,22.6 336,20.845 336,18.55 L336,5.05 C336,2.755 334.245,1 331.95,1 L331.95,1 Z" transform="matrix(-1 0 0 1 645 0)"/>
    <path fill="#FFF" stroke="#323B43" stroke-opacity=".048" d="M283.7,23.95 L283.7,6.67 C282.08,7.21 281,8.695 281,10.45 L281,23.95 C281,26.245 282.755,28 285.05,28 L298.55,28 C300.305,28 301.79,26.92 302.33,25.3 L285.05,25.3 C284.24,25.3 283.7,24.76 283.7,23.95 L283.7,23.95 Z M303.95,1 L290.45,1 C288.155,1 286.4,2.755 286.4,5.05 L286.4,18.55 C286.4,20.845 288.155,22.6 290.45,22.6 L303.95,22.6 C306.245,22.6 308,20.845 308,18.55 L308,5.05 C308,2.755 306.245,1 303.95,1 L303.95,1 Z" transform="matrix(-1 0 0 1 589 0)"/>
    <path fill="#323B43" d="M83.9086646 15.6214881C83.8100343 16.4824065 83.0835518 17.1337664 82.2170537 17.1381763L82.1120572 17.1381763 81.9837281 17.1381763C81.20591 17.1419536 80.5105747 17.6239215 80.2340373 18.350965 79.9574998 19.0780085 80.156758 19.9002751 80.7354359 20.4200564 81.4008135 21.0333559 81.4821304 22.0554558 80.9220964 22.7662565 80.2528364 23.5979408 79.4894338 24.3492428 78.6471715 25.0051218 78.3473921 25.239976 77.9780153 25.3684431 77.5972062 25.3702936 77.1145363 25.3690052 76.6540421 25.1674767 76.3255815 24.8137857 75.9431318 24.4201584 75.4160819 24.2004736 74.8672962 24.2059437 74.6437203 24.2048915 74.4219929 24.2464673 74.2139845 24.3284455 73.4854723 24.634652 73.021414 25.3586173 73.0473563 26.1484714 73.0761061 27.0455944 72.4109722 27.8143428 71.5190734 27.9148299 70.4721679 28.0310585 69.4154662 28.0283188 68.3691773 27.9066631 67.46732 27.8011587 66.8059429 27.0079814 66.864227 26.1018041 66.9037871 25.3045247 66.4430441 24.5668356 65.7092651 24.2526111 65.4979968 24.1673364 65.2721108 24.1241387 65.044287 24.1254426 64.4958599 24.1206214 63.9691954 24.3397242 63.5860018 24.7321179 62.9731683 25.4072293 61.9408812 25.4889985 61.2294129 24.9187872 60.4114977 24.2572492 59.671737 23.5045364 59.0244857 22.6752552 58.4646356 21.9732552 58.5463338 20.9570856 59.2111462 20.3535555 59.7916062 19.8166179 59.981718 18.9777683 59.6894637 18.2430254 59.40965 17.5508073 58.7442936 17.0919191 57.9978529 17.0763421L57.9278552 17.0763421C57.026016 17.0882861 56.2493583 16.4426898 56.096249 15.5538204 55.967917 14.4964074 55.967917 13.4273548 56.096249 12.3699417 56.1890077 11.4823319 56.9544502 10.818917 57.8461912 10.8532534 58.6530214 10.8844637 59.4008896 10.4320509 59.7477952 9.70290371 60.0529967 8.96403032 59.861625 8.11308655 59.2694776 7.57604007 58.6042597 6.96314037 58.5229334 5.94143148 59.0828171 5.23100665 59.7497945 4.40086117 60.5091026 3.64934555 61.3460757 2.99097473 61.6504944 2.75641569 62.0234184 2.62814016 62.4077074 2.62580286 62.8910574 2.627289 63.3519021 2.83023938 63.6793321 3.18581084 64.0632697 3.57669019 64.5897575 3.79445585 65.1376173 3.7889861 65.3607706 3.79133566 65.5823809 3.75176053 65.7909291 3.67231777 66.5202178 3.36511803 66.9843016 2.63972079 66.9575572 1.84879178 66.9294806.952350842 67.5945816.184656042 68.4858402.0847666453 69.5327747-.030923676 70.5894156-.0281841072 71.6357362.0929334283 72.5368139.198978206 73.197723.991081917 73.1406866 1.8966258 73.095938 2.69581853 73.558226 3.43691524 74.2956484 3.74815218 74.5071792 3.83240205 74.732939 3.87517961 74.9606265 3.87415398 75.5088028 3.8788753 76.0352895 3.66026768 76.4189117 3.26864535 77.0278947 2.59604996 78.0549985 2.51326456 78.7638343 3.07964266 79.5864368 3.73896327 80.3302199 4.4910027 80.9804279 5.32084126 81.5441188 6.02588769 81.4623737 7.04774985 80.7937674 7.65420785 80.2126153 8.1801405 80.0185703 9.01137751 80.3067928 9.74027718 80.5950152 10.4691769 81.3050624 10.9428828 82.0887246 10.9290878 82.9846588 10.9214513 83.7546137 11.5631106 83.9086646 12.4457761 84.0304451 13.500844 84.0304451 14.5664202 83.9086646 15.6214881L83.9086646 15.6214881zM81.5987408 12.9112828C80.1101851 12.8763453 78.7831481 11.9644211 78.2168479 10.5872857 77.6505476 9.21015027 77.9521602 7.62843588 78.9854937 6.55635887 78.5303939 5.99744298 78.0225089 5.48367353 77.4688771 5.02217034 76.7436454 5.69819557 75.7887249 6.07350958 74.7972986 6.0721853 74.3210397 6.07506121 73.8490169 5.98263559 73.409011 5.8003481 72.025716 5.21533611 71.1224628 3.86406053 71.1107535 2.36213243 70.3928691 2.29564024 69.6703759 2.29564024 68.9524914 2.36213243 68.8714561 3.80872124 67.9134522 5.05835049 66.5375711 5.51217732 66.1472992 5.75984775 65.7106514 5.92538477 65.2542801 5.99868426 64.268306 5.99991131 63.3182586 5.62862527 62.5943679 4.95916944 62.0247841 5.41954851 61.5012348 5.93413579 61.0310861 6.49569134 62.0761052 7.57540577 62.3787877 9.17327815 61.8010607 10.5604159 61.1985664 11.9248525 59.8622284 12.818514 58.3711739 12.8541153 58.3031036 13.5834864 58.2991998 14.3174259 58.3595076 15.0474799 59.8517067 15.0762982 61.1844337 15.9881875 61.7518914 17.3686441 62.319349 18.7491007 62.0132585 20.3347144 60.9727547 21.4047371 61.433667 21.9587646 61.9410494 22.4724159 62.4893714 22.9400923 63.2167287 22.2674474 64.1702681 21.8926762 65.1609499 21.8900774 65.6411695 21.8864529 66.1172287 21.9792888 66.5609037 22.1630813 67.9448513 22.7460311 68.8486647 24.0972271 68.8591612 25.5989636 69.5770173 25.6660672 70.2995672 25.6660672 71.0174233 25.5989636 71.0637823 24.1163793 71.9711236 22.7972524 73.3390133 22.2237488 73.7728257 22.0492099 74.2363677 21.9604592 74.7039683 21.9624117 75.6939741 21.9593654 76.6484434 22.3311675 77.3755468 23.0030932 77.941328 22.5384664 78.4644988 22.0242511 78.9388286 21.4665713 77.888373 20.3896814 77.5850342 18.7883443 78.168854 17.4018468 78.7577867 16.0247755 80.1012702 15.1226797 81.5987408 15.0988139 81.6691113 14.3697757 81.6691113 13.6356543 81.5987408 12.906616L81.5987408 12.9112828zM70.0024568 18.6548646C68.1105171 18.6624215 66.4006645 17.5285066 65.6714086 15.782664 64.9421527 14.0368214 65.337378 12.0235113 66.6725124 10.6829597 68.0076467 9.34240807 70.0192638 8.93911 71.7679285 9.66140771 73.5165931 10.3837054 74.6572881 12.0890872 74.6573032 13.9811313 74.6611744 16.5566795 72.5778781 18.6484286 70.0024568 18.6548646L70.0024568 18.6548646zM70.0024568 11.6640983C68.7153732 11.6705341 67.6765947 12.7180505 67.6808796 14.0052039 67.6851646 15.2923573 68.7308945 16.3329337 70.0179924 16.3307991 71.3050903 16.3286646 72.3473633 15.2846254 72.3473794 13.9974649 72.3476977 13.3763887 72.1004093 12.7808124 71.6602786 12.3426317 71.2201478 11.904451 70.6234959 11.6598262 70.0024568 11.6629316L70.0024568 11.6640983zM21.5 1.4875C22.1666667 2.1375 22.1666667 3.1125 21.5 3.7625L11 14 21.5 24.2375C22.1666667 24.8875 22.1666667 25.8625 21.5 26.5125 20.8333333 27.1625 19.8333333 27.1625 19.1666667 26.5125L7.5 15.1375C6.83333333 14.4875 6.83333333 13.5125 7.5 12.8625L19.1666667 1.4875C19.5 1.1625 20 1 20.3333333 1 20.6666667 1 21.1666667 1.1625 21.5 1.4875L21.5 1.4875z"/>
    <path fill="#323B43" d="M49.5,1.4875 C50.1666667,2.1375 50.1666667,3.1125 49.5,3.7625 L39,14 L49.5,24.2375 C50.1666667,24.8875 50.1666667,25.8625 49.5,26.5125 C48.8333333,27.1625 47.8333333,27.1625 47.1666667,26.5125 L35.5,15.1375 C34.8333333,14.4875 34.8333333,13.5125 35.5,12.8625 L47.1666667,1.4875 C47.5,1.1625 48,1 48.3333333,1 C48.6666667,1 49.1666667,1.1625 49.5,1.4875 L49.5,1.4875 Z" transform="rotate(180 42.5 14)"/>
    <path fill="#BBCBDA" d="M350,-1 C350.852793,-1 351.544118,-0.317041636 351.544118,0.549757738 L351.544,12.455 L363.450242,12.4558824 C364.258599,12.4558824 364.922405,13.0672239 364.993667,13.8585699 L365,14 C365,14.8527926 364.317042,15.5441176 363.450242,15.5441176 L351.544,15.544 L351.544118,27.4502423 C351.544118,28.2585994 350.932776,28.9224054 350.14143,28.9936666 L350,29 C349.147207,29 348.455882,28.3170416 348.455882,27.4502423 L348.455,15.544 L336.549758,15.5441176 C335.741401,15.5441176 335.077595,14.9327761 335.006333,14.1414301 L335,14 C335,13.1472074 335.682958,12.4558824 336.549758,12.4558824 L348.455,12.455 L348.455882,0.549757738 C348.455882,-0.258599406 349.067224,-0.922405359 349.85857,-0.993666647 L350,-1 Z" transform="rotate(45 350 14)"/>
    <path fill="#BBCBDA" d="M391.1625,13.2125 L387.225,9.275 C386.775,8.825 386.1,8.825 385.65,9.275 C385.2,9.725 385.2,10.4 385.65,10.85 L387.675,12.875 L379.125,12.875 L379.125,4.325 L381.15,6.35 C381.6,6.8 382.275,6.8 382.725,6.35 C383.175,5.9 383.175,5.225 382.725,4.775 L378.7875,0.8375 C378.3375,0.3875 377.6625,0.3875 377.2125,0.8375 L373.275,4.775 C372.825,5.225 372.825,5.9 373.275,6.35 C373.725,6.8 374.4,6.8 374.85,6.35 L376.875,4.325 L376.875,12.875 L368.325,12.875 L370.35,10.85 C370.8,10.4 370.8,9.725 370.35,9.275 C369.9,8.825 369.225,8.825 368.775,9.275 L364.8375,13.2125 C364.3875,13.6625 364.3875,14.3375 364.8375,14.7875 L368.775,18.725 C369.225,19.175 369.9,19.175 370.35,18.725 C370.8,18.275 370.8,17.6 370.35,17.15 L368.325,15.125 L376.875,15.125 L376.875,23.675 L374.85,21.65 C374.4,21.2 373.725,21.2 373.275,21.65 C372.825,22.1 372.825,22.775 373.275,23.225 L377.2125,27.1625 C377.6625,27.6125 378.3375,27.6125 378.7875,27.1625 L382.725,23.225 C383.175,22.775 383.175,22.1 382.725,21.65 C382.275,21.2 381.6,21.2 381.15,21.65 L379.125,23.675 L379.125,15.125 L387.675,15.125 L385.65,17.15 C385.2,17.6 385.2,18.275 385.65,18.725 C386.1,19.175 386.775,19.175 387.225,18.725 L391.1625,14.7875 C391.6125,14.3375 391.6125,13.6625 391.1625,13.2125 L391.1625,13.2125 Z"/>
  </g>
</svg>
